<?xml version="1.0" encoding="UTF-8"?>
<svg xmlns="http://www.w3.org/2000/svg" xmlns:xlink="http://www.w3.org/1999/xlink" width="158px" height="53px" viewBox="0 0 159 53" version="1.1">
<defs>
<filter id="alpha" filterUnits="objectBoundingBox" x="0%" y="0%" width="100%" height="100%">
  <feColorMatrix type="matrix" in="SourceGraphic" values="0 0 0 0 1 0 0 0 0 1 0 0 0 0 1 0 0 0 1 0"/>
</filter>
<mask id="mask0">
  <g filter="url(#alpha)">
<rect x="0" y="0" width="159" height="53" style="fill:rgb(0%,0%,0%);fill-opacity:0.976471;stroke:none;"/>
  </g>
</mask>
<clipPath id="clip1">
  <rect x="0" y="0" width="159" height="53"/>
</clipPath>
<g id="surface5" clip-path="url(#clip1)">
<path style=" stroke:none;fill-rule:evenodd;fill:rgb(25.882353%,25.882353%,25.882353%);fill-opacity:1;" d="M 43.328125 25.835938 C 39.882812 22.570312 36.527344 19.210938 33.257812 15.765625 C 27.871094 15.414062 22.480469 15.414062 17.09375 15.765625 C 17.09375 22.214844 17.09375 28.664062 17.09375 35.113281 C 19.777344 37.929688 22.515625 40.710938 25.308594 43.460938 C 26.1875 43.59375 27.070312 43.636719 27.957031 43.59375 C 17.859375 44.613281 10.925781 40.375 7.15625 30.871094 C 5.113281 22.425781 7.453125 15.492188 14.175781 10.070312 C 21.335938 5.652344 28.492188 5.652344 35.640625 10.070312 C 40.933594 13.980469 43.496094 19.238281 43.328125 25.835938 Z M 43.328125 25.835938 "/>
</g>
<mask id="mask1">
  <g filter="url(#alpha)">
<rect x="0" y="0" width="159" height="53" style="fill:rgb(0%,0%,0%);fill-opacity:0.964706;stroke:none;"/>
  </g>
</mask>
<clipPath id="clip2">
  <rect x="0" y="0" width="159" height="53"/>
</clipPath>
<g id="surface8" clip-path="url(#clip2)">
<path style=" stroke:none;fill-rule:evenodd;fill:rgb(22.745098%,74.117647%,44.705882%);fill-opacity:1;" d="M 51.542969 15.503906 C 54.8125 15.503906 58.078125 15.503906 61.347656 15.503906 C 61.347656 16.5625 61.347656 17.621094 61.347656 18.683594 C 59.316406 18.683594 57.285156 18.683594 55.253906 18.683594 C 55.253906 19.652344 55.253906 20.625 55.253906 21.597656 C 57.109375 21.597656 58.960938 21.597656 60.816406 21.597656 C 60.816406 22.65625 60.816406 23.71875 60.816406 24.777344 C 58.960938 24.777344 57.109375 24.777344 55.253906 24.777344 C 55.253906 25.835938 55.253906 26.898438 55.253906 27.957031 C 57.285156 27.957031 59.316406 27.957031 61.347656 27.957031 C 61.347656 29.015625 61.347656 30.078125 61.347656 31.136719 C 58.078125 31.136719 54.8125 31.136719 51.542969 31.136719 C 51.542969 25.925781 51.542969 20.714844 51.542969 15.503906 Z M 51.542969 15.503906 "/>
</g>
<mask id="mask2">
  <g filter="url(#alpha)">
<rect x="0" y="0" width="159" height="53" style="fill:rgb(0%,0%,0%);fill-opacity:0.960784;stroke:none;"/>
  </g>
</mask>
<clipPath id="clip3">
  <rect x="0" y="0" width="159" height="53"/>
</clipPath>
<g id="surface11" clip-path="url(#clip3)">
<path style=" stroke:none;fill-rule:evenodd;fill:rgb(22.745098%,74.117647%,44.705882%);fill-opacity:1;" d="M 61.613281 15.503906 C 65.765625 15.503906 69.914062 15.503906 74.066406 15.503906 C 74.066406 16.5625 74.066406 17.621094 74.066406 18.683594 C 72.652344 18.683594 71.242188 18.683594 69.828125 18.683594 C 69.828125 22.835938 69.828125 26.984375 69.828125 31.136719 C 68.589844 31.136719 67.355469 31.136719 66.117188 31.136719 C 66.117188 26.984375 66.117188 22.835938 66.117188 18.683594 C 64.617188 18.683594 63.113281 18.683594 61.613281 18.683594 C 61.613281 17.621094 61.613281 16.5625 61.613281 15.503906 Z M 61.613281 15.503906 "/>
</g>
<mask id="mask3">
  <g filter="url(#alpha)">
<rect x="0" y="0" width="159" height="53" style="fill:rgb(0%,0%,0%);fill-opacity:0.941176;stroke:none;"/>
  </g>
</mask>
<clipPath id="clip4">
  <rect x="0" y="0" width="159" height="53"/>
</clipPath>
<g id="surface14" clip-path="url(#clip4)">
<path style=" stroke:none;fill-rule:evenodd;fill:rgb(22.745098%,73.72549%,44.705882%);fill-opacity:1;" d="M 75.390625 15.503906 C 76.628906 15.503906 77.867188 15.503906 79.101562 15.503906 C 79.101562 17.535156 79.101562 19.566406 79.101562 21.597656 C 80.691406 21.597656 82.28125 21.597656 83.871094 21.597656 C 83.871094 19.566406 83.871094 17.535156 83.871094 15.503906 C 85.109375 15.503906 86.347656 15.503906 87.582031 15.503906 C 87.582031 20.714844 87.582031 25.925781 87.582031 31.136719 C 86.347656 31.136719 85.109375 31.136719 83.871094 31.136719 C 83.871094 29.015625 83.871094 26.898438 83.871094 24.777344 C 82.28125 24.777344 80.691406 24.777344 79.101562 24.777344 C 79.101562 26.898438 79.101562 29.015625 79.101562 31.136719 C 77.867188 31.136719 76.628906 31.136719 75.390625 31.136719 C 75.390625 25.925781 75.390625 20.714844 75.390625 15.503906 Z M 75.390625 15.503906 "/>
</g>
<mask id="mask4">
  <g filter="url(#alpha)">
<rect x="0" y="0" width="159" height="53" style="fill:rgb(0%,0%,0%);fill-opacity:0.941176;stroke:none;"/>
  </g>
</mask>
<clipPath id="clip5">
  <rect x="0" y="0" width="159" height="53"/>
</clipPath>
<g id="surface17" clip-path="url(#clip5)">
<path style=" stroke:none;fill-rule:evenodd;fill:rgb(22.745098%,74.117647%,44.705882%);fill-opacity:1;" d="M 94.472656 17.621094 C 96.945312 17.710938 99.417969 17.800781 101.890625 17.886719 C 101.890625 18.683594 101.890625 19.476562 101.890625 20.273438 C 101.417969 20.195312 100.976562 20.285156 100.566406 20.539062 C 101.539062 24.832031 99.773438 27.175781 95.265625 27.558594 C 96.890625 28.160156 98.484375 28.867188 100.039062 29.679688 C 101.503906 30.84375 101.726562 32.214844 100.699219 33.789062 C 99.964844 34.386719 99.125 34.785156 98.183594 34.980469 C 95.597656 35.230469 93.035156 35.097656 90.496094 34.582031 C 90.320312 34.496094 90.144531 34.40625 89.96875 34.316406 C 90.160156 33.625 90.292969 32.917969 90.363281 32.199219 C 90.542969 31.910156 90.808594 31.734375 91.160156 31.667969 C 93.394531 32.117188 95.648438 32.25 97.917969 32.066406 C 96.0625 31.3125 94.207031 30.5625 92.351562 29.8125 C 92.234375 28.914062 92.410156 28.03125 92.882812 27.164062 C 89.917969 25.558594 89.078125 23.171875 90.363281 20.007812 C 91.449219 18.695312 92.820312 17.902344 94.472656 17.621094 Z M 95.003906 20.273438 C 97.53125 19.945312 98.371094 21.003906 97.519531 23.453125 C 97.398438 23.832031 97.175781 24.140625 96.859375 24.378906 C 93.808594 25.21875 92.707031 24.113281 93.546875 21.066406 C 94 20.703125 94.484375 20.441406 95.003906 20.273438 Z M 95.003906 20.273438 "/>
</g>
<mask id="mask5">
  <g filter="url(#alpha)">
<rect x="0" y="0" width="159" height="53" style="fill:rgb(0%,0%,0%);fill-opacity:0.964706;stroke:none;"/>
  </g>
</mask>
<clipPath id="clip6">
  <rect x="0" y="0" width="159" height="53"/>
</clipPath>
<g id="surface20" clip-path="url(#clip6)">
<path style=" stroke:none;fill-rule:evenodd;fill:rgb(22.745098%,74.117647%,44.705882%);fill-opacity:1;" d="M 109.3125 17.621094 C 110.007812 17.550781 110.667969 17.640625 111.300781 17.886719 C 111.433594 18.945312 111.476562 20.003906 111.433594 21.066406 C 109.976562 20.9375 108.605469 21.203125 107.324219 21.863281 C 107.191406 24.953125 107.148438 28.042969 107.191406 31.136719 C 105.957031 31.136719 104.71875 31.136719 103.484375 31.136719 C 103.484375 26.722656 103.484375 22.304688 103.484375 17.886719 C 104.28125 17.84375 105.078125 17.886719 105.867188 18.019531 C 106.039062 18.445312 106.257812 18.84375 106.53125 19.210938 C 107.417969 18.570312 108.34375 18.042969 109.3125 17.621094 Z M 109.3125 17.621094 "/>
</g>
<mask id="mask6">
  <g filter="url(#alpha)">
<rect x="0" y="0" width="159" height="53" style="fill:rgb(0%,0%,0%);fill-opacity:0.945098;stroke:none;"/>
  </g>
</mask>
<clipPath id="clip7">
  <rect x="0" y="0" width="159" height="53"/>
</clipPath>
<g id="surface23" clip-path="url(#clip7)">
<path style=" stroke:none;fill-rule:evenodd;fill:rgb(22.745098%,74.117647%,44.705882%);fill-opacity:1;" d="M 116.996094 17.621094 C 119.195312 17.332031 121.136719 17.863281 122.828125 19.210938 C 123.980469 21.261719 124.421875 23.46875 124.152344 25.835938 C 121.503906 25.835938 118.851562 25.835938 116.203125 25.835938 C 116.308594 28.28125 117.546875 29.117188 119.914062 28.355469 C 120.816406 28.214844 121.699219 27.996094 122.5625 27.691406 C 122.738281 27.78125 122.914062 27.871094 123.09375 27.957031 C 123.359375 28.664062 123.621094 29.371094 123.886719 30.078125 C 123.378906 30.558594 122.761719 30.867188 122.03125 31.003906 C 120.109375 31.679688 118.164062 31.769531 116.203125 31.269531 C 114.140625 30.53125 112.945312 29.074219 112.625 26.898438 C 112.28125 24.519531 112.546875 22.222656 113.421875 20.007812 C 114.355469 18.769531 115.546875 17.976562 116.996094 17.621094 Z M 118.058594 20.539062 C 119.714844 20.5625 120.511719 21.398438 120.441406 23.054688 C 119.027344 23.230469 117.617188 23.230469 116.203125 23.054688 C 116.21875 21.734375 116.835938 20.894531 118.058594 20.539062 Z M 118.058594 20.539062 "/>
</g>
<mask id="mask7">
  <g filter="url(#alpha)">
<rect x="0" y="0" width="159" height="53" style="fill:rgb(0%,0%,0%);fill-opacity:0.94902;stroke:none;"/>
  </g>
</mask>
<clipPath id="clip8">
  <rect x="0" y="0" width="159" height="53"/>
</clipPath>
<g id="surface26" clip-path="url(#clip8)">
<path style=" stroke:none;fill-rule:evenodd;fill:rgb(22.745098%,74.117647%,44.705882%);fill-opacity:1;" d="M 130.511719 17.621094 C 132.824219 17.28125 134.8125 17.902344 136.476562 19.476562 C 137.324219 21.5 137.722656 23.621094 137.667969 25.835938 C 135.015625 25.835938 132.367188 25.835938 129.71875 25.835938 C 129.78125 28.300781 131.015625 29.140625 133.425781 28.355469 C 134.472656 28.050781 135.535156 27.828125 136.609375 27.691406 C 136.738281 28.574219 137.003906 29.414062 137.402344 30.210938 C 134.457031 31.742188 131.453125 31.917969 128.390625 30.738281 C 127.136719 29.863281 126.386719 28.667969 126.140625 27.164062 C 125.914062 25.113281 126 23.082031 126.40625 21.066406 C 127.140625 19.136719 128.507812 17.988281 130.511719 17.621094 Z M 131.308594 20.539062 C 133.195312 20.421875 133.988281 21.304688 133.691406 23.1875 C 132.367188 23.1875 131.042969 23.1875 129.71875 23.1875 C 129.722656 21.929688 130.253906 21.046875 131.308594 20.539062 Z M 131.308594 20.539062 "/>
</g>
<mask id="mask8">
  <g filter="url(#alpha)">
<rect x="0" y="0" width="159" height="53" style="fill:rgb(0%,0%,0%);fill-opacity:0.933333;stroke:none;"/>
  </g>
</mask>
<clipPath id="clip9">
  <rect x="0" y="0" width="159" height="53"/>
</clipPath>
<g id="surface29" clip-path="url(#clip9)">
<path style=" stroke:none;fill-rule:evenodd;fill:rgb(22.745098%,74.117647%,44.705882%);fill-opacity:1;" d="M 146.414062 17.621094 C 149.3125 17.191406 150.859375 18.429688 151.050781 21.332031 C 151.183594 24.601562 151.226562 27.867188 151.183594 31.136719 C 149.945312 31.136719 148.710938 31.136719 147.472656 31.136719 C 147.515625 28.132812 147.472656 25.128906 147.339844 22.128906 C 147.28125 21.449219 146.925781 21.007812 146.28125 20.800781 C 145.382812 20.929688 144.589844 21.28125 143.894531 21.863281 C 143.761719 24.953125 143.71875 28.042969 143.761719 31.136719 C 142.527344 31.136719 141.289062 31.136719 140.050781 31.136719 C 140.050781 26.722656 140.050781 22.304688 140.050781 17.886719 C 140.851562 17.84375 141.648438 17.886719 142.4375 18.019531 C 142.628906 18.390625 142.761719 18.789062 142.835938 19.210938 C 144.019531 18.597656 145.210938 18.070312 146.414062 17.621094 Z M 146.414062 17.621094 "/>
</g>
<mask id="mask9">
  <g filter="url(#alpha)">
<rect x="0" y="0" width="159" height="53" style="fill:rgb(0%,0%,0%);fill-opacity:0.811765;stroke:none;"/>
  </g>
</mask>
<clipPath id="clip10">
  <rect x="0" y="0" width="159" height="53"/>
</clipPath>
<g id="surface32" clip-path="url(#clip10)">
<path style=" stroke:none;fill-rule:evenodd;fill:rgb(65.098039%,65.098039%,65.098039%);fill-opacity:1;" d="M 53.398438 37.234375 C 54.371094 37.234375 55.339844 37.234375 56.3125 37.234375 C 56.3125 37.585938 56.3125 37.9375 56.3125 38.292969 C 55.695312 38.292969 55.074219 38.292969 54.457031 38.292969 C 54.457031 38.558594 54.457031 38.824219 54.457031 39.085938 C 54.988281 39.085938 55.515625 39.085938 56.046875 39.085938 C 56.046875 39.351562 56.046875 39.617188 56.046875 39.882812 C 55.515625 39.882812 54.988281 39.882812 54.457031 39.882812 C 54.457031 40.414062 54.457031 40.941406 54.457031 41.472656 C 54.105469 41.472656 53.75 41.472656 53.398438 41.472656 C 53.398438 40.058594 53.398438 38.644531 53.398438 37.234375 Z M 53.398438 37.234375 "/>
</g>
<mask id="mask10">
  <g filter="url(#alpha)">
<rect x="0" y="0" width="159" height="53" style="fill:rgb(0%,0%,0%);fill-opacity:0.772549;stroke:none;"/>
  </g>
</mask>
<clipPath id="clip11">
  <rect x="0" y="0" width="159" height="53"/>
</clipPath>
<g id="surface35" clip-path="url(#clip11)">
<path style=" stroke:none;fill-rule:evenodd;fill:rgb(65.098039%,65.098039%,65.098039%);fill-opacity:1;" d="M 61.613281 37.234375 C 63.941406 37.027344 64.871094 38.085938 64.394531 40.414062 C 63.367188 42.058594 62.21875 42.148438 60.949219 40.675781 C 60.644531 39.402344 60.863281 38.253906 61.613281 37.234375 Z M 62.40625 38.027344 C 63.761719 38.851562 63.804688 39.734375 62.539062 40.675781 C 61.710938 39.839844 61.664062 38.957031 62.40625 38.027344 Z M 62.40625 38.027344 "/>
</g>
<mask id="mask11">
  <g filter="url(#alpha)">
<rect x="0" y="0" width="159" height="53" style="fill:rgb(0%,0%,0%);fill-opacity:0.768627;stroke:none;"/>
  </g>
</mask>
<clipPath id="clip12">
  <rect x="0" y="0" width="159" height="53"/>
</clipPath>
<g id="surface38" clip-path="url(#clip12)">
<path style=" stroke:none;fill-rule:evenodd;fill:rgb(65.098039%,65.098039%,65.098039%);fill-opacity:1;" d="M 69.03125 37.234375 C 69.921875 37.1875 70.804688 37.234375 71.683594 37.363281 C 72.632812 38.144531 72.722656 39.027344 71.949219 40.015625 C 72.085938 40.429688 72.265625 40.824219 72.476562 41.207031 C 72.152344 41.503906 71.800781 41.546875 71.417969 41.339844 C 70.753906 39.738281 70.402344 39.785156 70.359375 41.472656 C 69.914062 41.472656 69.472656 41.472656 69.03125 41.472656 C 69.03125 40.058594 69.03125 38.644531 69.03125 37.234375 Z M 70.359375 38.292969 C 71.769531 38.558594 71.769531 38.824219 70.359375 39.085938 C 70.359375 38.824219 70.359375 38.558594 70.359375 38.292969 Z M 70.359375 38.292969 "/>
</g>
<mask id="mask12">
  <g filter="url(#alpha)">
<rect x="0" y="0" width="159" height="53" style="fill:rgb(0%,0%,0%);fill-opacity:0.796078;stroke:none;"/>
  </g>
</mask>
<clipPath id="clip13">
  <rect x="0" y="0" width="159" height="53"/>
</clipPath>
<g id="surface41" clip-path="url(#clip13)">
<path style=" stroke:none;fill-rule:evenodd;fill:rgb(65.098039%,65.098039%,65.098039%);fill-opacity:1;" d="M 82.546875 37.234375 C 83.785156 37.234375 85.019531 37.234375 86.257812 37.234375 C 86.257812 37.585938 86.257812 37.9375 86.257812 38.292969 C 85.816406 38.292969 85.375 38.292969 84.933594 38.292969 C 84.933594 39.351562 84.933594 40.414062 84.933594 41.472656 C 84.578125 41.472656 84.226562 41.472656 83.871094 41.472656 C 83.871094 40.414062 83.871094 39.351562 83.871094 38.292969 C 82.957031 38.488281 82.515625 38.136719 82.546875 37.234375 Z M 82.546875 37.234375 "/>
</g>
<mask id="mask13">
  <g filter="url(#alpha)">
<rect x="0" y="0" width="159" height="53" style="fill:rgb(0%,0%,0%);fill-opacity:0.760784;stroke:none;"/>
  </g>
</mask>
<clipPath id="clip14">
  <rect x="0" y="0" width="159" height="53"/>
</clipPath>
<g id="surface44" clip-path="url(#clip14)">
<path style=" stroke:none;fill-rule:evenodd;fill:rgb(64.705882%,64.705882%,64.705882%);fill-opacity:1;" d="M 90.761719 37.234375 C 91.117188 37.234375 91.46875 37.234375 91.824219 37.234375 C 91.824219 37.761719 91.824219 38.292969 91.824219 38.824219 C 92.351562 38.824219 92.882812 38.824219 93.414062 38.824219 C 93.414062 38.292969 93.414062 37.761719 93.414062 37.234375 C 93.765625 37.234375 94.121094 37.234375 94.472656 37.234375 C 94.472656 38.644531 94.472656 40.058594 94.472656 41.472656 C 94.121094 41.472656 93.765625 41.472656 93.414062 41.472656 C 93.414062 40.941406 93.414062 40.414062 93.414062 39.882812 C 92.882812 39.882812 92.351562 39.882812 91.824219 39.882812 C 91.824219 40.414062 91.824219 40.941406 91.824219 41.472656 C 91.46875 41.472656 91.117188 41.472656 90.761719 41.472656 C 90.761719 40.058594 90.761719 38.644531 90.761719 37.234375 Z M 90.761719 37.234375 "/>
</g>
<mask id="mask14">
  <g filter="url(#alpha)">
<rect x="0" y="0" width="159" height="53" style="fill:rgb(0%,0%,0%);fill-opacity:0.788235;stroke:none;"/>
  </g>
</mask>
<clipPath id="clip15">
  <rect x="0" y="0" width="159" height="53"/>
</clipPath>
<g id="surface47" clip-path="url(#clip15)">
<path style=" stroke:none;fill-rule:evenodd;fill:rgb(64.705882%,64.705882%,64.705882%);fill-opacity:1;" d="M 99.242188 37.234375 C 100.214844 37.234375 101.1875 37.234375 102.15625 37.234375 C 102.15625 37.585938 102.15625 37.9375 102.15625 38.292969 C 101.515625 38.210938 100.898438 38.300781 100.300781 38.558594 C 100.804688 38.8125 101.335938 38.902344 101.890625 38.824219 C 101.890625 39.175781 101.890625 39.527344 101.890625 39.882812 C 101.363281 39.882812 100.832031 39.882812 100.300781 39.882812 C 100.300781 40.148438 100.300781 40.414062 100.300781 40.675781 C 100.921875 40.675781 101.539062 40.675781 102.15625 40.675781 C 102.15625 40.941406 102.15625 41.207031 102.15625 41.472656 C 101.1875 41.472656 100.214844 41.472656 99.242188 41.472656 C 99.242188 40.058594 99.242188 38.644531 99.242188 37.234375 Z M 99.242188 37.234375 "/>
</g>
<mask id="mask15">
  <g filter="url(#alpha)">
<rect x="0" y="0" width="159" height="53" style="fill:rgb(0%,0%,0%);fill-opacity:0.776471;stroke:none;"/>
  </g>
</mask>
<clipPath id="clip16">
  <rect x="0" y="0" width="159" height="53"/>
</clipPath>
<g id="surface50" clip-path="url(#clip16)">
<path style=" stroke:none;fill-rule:evenodd;fill:rgb(64.705882%,64.705882%,64.705882%);fill-opacity:1;" d="M 112.226562 37.234375 C 112.664062 37.175781 113.0625 37.265625 113.421875 37.496094 C 113.777344 39.582031 114.085938 39.582031 114.347656 37.496094 C 114.664062 37.25 115.015625 37.164062 115.40625 37.234375 C 115.675781 40.054688 115.9375 40.054688 116.203125 37.234375 C 116.554688 37.234375 116.910156 37.234375 117.261719 37.234375 C 117.167969 38.589844 116.902344 39.917969 116.46875 41.207031 C 116.144531 41.503906 115.789062 41.546875 115.40625 41.339844 C 114.867188 39.023438 114.511719 39.066406 114.347656 41.472656 C 113.90625 41.472656 113.464844 41.472656 113.023438 41.472656 C 112.839844 40.042969 112.578125 38.628906 112.226562 37.234375 Z M 112.226562 37.234375 "/>
</g>
<mask id="mask16">
  <g filter="url(#alpha)">
<rect x="0" y="0" width="159" height="53" style="fill:rgb(0%,0%,0%);fill-opacity:0.776471;stroke:none;"/>
  </g>
</mask>
<clipPath id="clip17">
  <rect x="0" y="0" width="159" height="53"/>
</clipPath>
<g id="surface53" clip-path="url(#clip17)">
<path style=" stroke:none;fill-rule:evenodd;fill:rgb(65.098039%,65.098039%,65.098039%);fill-opacity:1;" d="M 122.828125 37.234375 C 125.300781 37.105469 126.136719 38.253906 125.34375 40.675781 C 124.398438 41.929688 123.335938 42.015625 122.164062 40.941406 C 121.503906 39.519531 121.722656 38.28125 122.828125 37.234375 Z M 123.621094 38.027344 C 124.253906 38.296875 124.515625 38.78125 124.417969 39.484375 C 124.503906 40.085938 124.28125 40.484375 123.753906 40.675781 C 122.589844 39.875 122.542969 38.992188 123.621094 38.027344 Z M 123.621094 38.027344 "/>
</g>
<mask id="mask17">
  <g filter="url(#alpha)">
<rect x="0" y="0" width="159" height="53" style="fill:rgb(0%,0%,0%);fill-opacity:0.792157;stroke:none;"/>
  </g>
</mask>
<clipPath id="clip18">
  <rect x="0" y="0" width="159" height="53"/>
</clipPath>
<g id="surface56" clip-path="url(#clip18)">
<path style=" stroke:none;fill-rule:evenodd;fill:rgb(65.098039%,65.098039%,65.098039%);fill-opacity:1;" d="M 130.246094 37.234375 C 131.136719 37.1875 132.019531 37.234375 132.898438 37.363281 C 133.839844 38.160156 133.925781 39.042969 133.164062 40.015625 C 133.300781 40.429688 133.480469 40.824219 133.691406 41.207031 C 133.25 41.5625 132.808594 41.5625 132.367188 41.207031 C 131.65625 39.707031 131.304688 39.796875 131.308594 41.472656 C 130.953125 41.472656 130.601562 41.472656 130.246094 41.472656 C 130.246094 40.058594 130.246094 38.644531 130.246094 37.234375 Z M 131.308594 38.292969 C 131.660156 38.292969 132.015625 38.292969 132.367188 38.292969 C 132.367188 38.558594 132.367188 38.824219 132.367188 39.085938 C 132.015625 39.085938 131.660156 39.085938 131.308594 39.085938 C 131.308594 38.824219 131.308594 38.558594 131.308594 38.292969 Z M 131.308594 38.292969 "/>
</g>
<mask id="mask18">
  <g filter="url(#alpha)">
<rect x="0" y="0" width="159" height="53" style="fill:rgb(0%,0%,0%);fill-opacity:0.788235;stroke:none;"/>
  </g>
</mask>
<clipPath id="clip19">
  <rect x="0" y="0" width="159" height="53"/>
</clipPath>
<g id="surface59" clip-path="url(#clip19)">
<path style=" stroke:none;fill-rule:evenodd;fill:rgb(65.098039%,65.098039%,65.098039%);fill-opacity:1;" d="M 138.199219 37.234375 C 138.640625 37.234375 139.082031 37.234375 139.523438 37.234375 C 139.523438 38.378906 139.523438 39.527344 139.523438 40.675781 C 140.050781 40.675781 140.582031 40.675781 141.113281 40.675781 C 141.113281 40.941406 141.113281 41.207031 141.113281 41.472656 C 140.140625 41.472656 139.167969 41.472656 138.199219 41.472656 C 138.199219 40.058594 138.199219 38.644531 138.199219 37.234375 Z M 138.199219 37.234375 "/>
</g>
<mask id="mask19">
  <g filter="url(#alpha)">
<rect x="0" y="0" width="159" height="53" style="fill:rgb(0%,0%,0%);fill-opacity:0.776471;stroke:none;"/>
  </g>
</mask>
<clipPath id="clip20">
  <rect x="0" y="0" width="159" height="53"/>
</clipPath>
<g id="surface62" clip-path="url(#clip20)">
<path style=" stroke:none;fill-rule:evenodd;fill:rgb(65.098039%,65.098039%,65.098039%);fill-opacity:1;" d="M 145.617188 37.234375 C 148.34375 36.667969 149.449219 37.726562 148.929688 40.414062 C 148.808594 40.792969 148.585938 41.101562 148.265625 41.339844 C 147.386719 41.472656 146.503906 41.515625 145.617188 41.472656 C 145.617188 40.058594 145.617188 38.644531 145.617188 37.234375 Z M 146.941406 38.292969 C 147.734375 38.199219 148.085938 38.554688 148.003906 39.351562 C 148.066406 39.996094 147.800781 40.4375 147.207031 40.675781 C 146.945312 39.902344 146.859375 39.105469 146.941406 38.292969 Z M 146.941406 38.292969 "/>
</g>
</defs>
<g id="surface1">
<use xlink:href="#surface5" mask="url(#mask0)"/>
<use xlink:href="#surface8" mask="url(#mask1)"/>
<use xlink:href="#surface11" mask="url(#mask2)"/>
<use xlink:href="#surface14" mask="url(#mask3)"/>
<path style=" stroke:none;fill-rule:evenodd;fill:rgb(96.862745%,99.607843%,98.039216%);fill-opacity:1;" d="M 17.09375 15.765625 C 19.742188 15.765625 22.390625 15.765625 25.042969 15.765625 C 25.042969 17.09375 25.042969 18.417969 25.042969 19.742188 C 23.71875 19.742188 22.390625 19.742188 21.066406 19.742188 C 21.066406 20.980469 21.066406 22.214844 21.066406 23.453125 C 22.390625 23.453125 23.71875 23.453125 25.042969 23.453125 C 25.042969 24.777344 25.042969 26.101562 25.042969 27.425781 C 23.71875 27.425781 22.390625 27.425781 21.066406 27.425781 C 21.066406 28.664062 21.066406 29.902344 21.066406 31.136719 C 22.390625 31.136719 23.71875 31.136719 25.042969 31.136719 C 25.042969 32.460938 25.042969 33.789062 25.042969 35.113281 C 22.390625 35.113281 19.742188 35.113281 17.09375 35.113281 C 17.09375 28.664062 17.09375 22.214844 17.09375 15.765625 Z M 17.09375 15.765625 "/>
<path style=" stroke:none;fill-rule:evenodd;fill:rgb(82.745098%,82.745098%,82.745098%);fill-opacity:1;" d="M 17.09375 15.765625 C 22.480469 15.414062 27.871094 15.414062 33.257812 15.765625 C 32.996094 17.039062 32.90625 18.367188 32.992188 19.742188 C 30.34375 19.742188 27.691406 19.742188 25.042969 19.742188 C 25.042969 18.417969 25.042969 17.09375 25.042969 15.765625 C 22.390625 15.765625 19.742188 15.765625 17.09375 15.765625 Z M 17.09375 15.765625 "/>
<path style=" stroke:none;fill-rule:evenodd;fill:rgb(23.529412%,73.72549%,45.098039%);fill-opacity:1;" d="M 33.257812 15.765625 C 36.527344 19.210938 39.882812 22.570312 43.328125 25.835938 C 42.871094 34.136719 38.804688 39.832031 31.136719 42.929688 C 30.109375 43.320312 29.050781 43.539062 27.957031 43.59375 C 27.070312 43.636719 26.1875 43.59375 25.308594 43.460938 C 22.515625 40.710938 19.777344 37.929688 17.09375 35.113281 C 19.742188 35.113281 22.390625 35.113281 25.042969 35.113281 C 27.691406 35.113281 30.34375 35.113281 32.992188 35.113281 C 33.253906 33.75 33.34375 32.335938 33.257812 30.871094 C 30.519531 30.871094 27.78125 30.871094 25.042969 30.871094 C 23.804688 30.871094 22.570312 30.871094 21.332031 30.871094 C 21.332031 29.8125 21.332031 28.753906 21.332031 27.691406 C 25.265625 27.78125 29.152344 27.691406 32.992188 27.425781 C 33.253906 26.066406 33.34375 24.652344 33.257812 23.1875 C 30.519531 23.1875 27.78125 23.1875 25.042969 23.1875 C 23.804688 23.1875 22.570312 23.1875 21.332031 23.1875 C 21.332031 22.128906 21.332031 21.066406 21.332031 20.007812 C 25.265625 20.09375 29.152344 20.007812 32.992188 19.742188 C 32.90625 18.367188 32.996094 17.039062 33.257812 15.765625 Z M 33.257812 15.765625 "/>
<use xlink:href="#surface17" mask="url(#mask4)"/>
<use xlink:href="#surface20" mask="url(#mask5)"/>
<use xlink:href="#surface23" mask="url(#mask6)"/>
<use xlink:href="#surface26" mask="url(#mask7)"/>
<use xlink:href="#surface29" mask="url(#mask8)"/>
<path style=" stroke:none;fill-rule:evenodd;fill:rgb(52.941176%,83.137255%,65.490196%);fill-opacity:1;" d="M 25.042969 19.742188 C 27.691406 19.742188 30.34375 19.742188 32.992188 19.742188 C 29.152344 20.007812 25.265625 20.09375 21.332031 20.007812 C 21.332031 21.066406 21.332031 22.128906 21.332031 23.1875 C 22.570312 23.1875 23.804688 23.1875 25.042969 23.1875 C 25.042969 23.277344 25.042969 23.363281 25.042969 23.453125 C 23.71875 23.453125 22.390625 23.453125 21.066406 23.453125 C 21.066406 22.214844 21.066406 20.980469 21.066406 19.742188 C 22.390625 19.742188 23.71875 19.742188 25.042969 19.742188 Z M 25.042969 19.742188 "/>
<path style=" stroke:none;fill-rule:evenodd;fill:rgb(67.058824%,84.313725%,74.509804%);fill-opacity:1;" d="M 25.042969 23.453125 C 25.042969 23.363281 25.042969 23.277344 25.042969 23.1875 C 27.78125 23.1875 30.519531 23.1875 33.257812 23.1875 C 33.34375 24.652344 33.253906 26.066406 32.992188 27.425781 C 32.992188 26.101562 32.992188 24.777344 32.992188 23.453125 C 30.34375 23.453125 27.691406 23.453125 25.042969 23.453125 Z M 25.042969 23.453125 "/>
<path style=" stroke:none;fill-rule:evenodd;fill:rgb(84.313725%,84.705882%,84.313725%);fill-opacity:1;" d="M 25.042969 23.453125 C 27.691406 23.453125 30.34375 23.453125 32.992188 23.453125 C 32.992188 24.777344 32.992188 26.101562 32.992188 27.425781 C 30.34375 27.425781 27.691406 27.425781 25.042969 27.425781 C 25.042969 26.101562 25.042969 24.777344 25.042969 23.453125 Z M 25.042969 23.453125 "/>
<path style=" stroke:none;fill-rule:evenodd;fill:rgb(23.529412%,71.764706%,43.921569%);fill-opacity:1;" d="M 15.765625 32.199219 C 15.035156 31.511719 14.238281 30.851562 13.382812 30.210938 C 12.25 29.726562 11.101562 29.285156 9.9375 28.886719 C 9.351562 28.386719 8.867188 27.8125 8.480469 27.164062 C 8.511719 28 8.910156 28.664062 9.671875 29.148438 C 10.996094 29.769531 12.324219 30.386719 13.648438 31.003906 C 14.238281 31.550781 14.769531 32.125 15.238281 32.726562 C 12.789062 34.050781 10.714844 33.523438 9.011719 31.136719 C 7.855469 29.394531 7.589844 27.539062 8.214844 25.574219 C 8.535156 25.984375 8.933594 26.292969 9.40625 26.5 C 11.109375 26.605469 12.699219 27.046875 14.175781 27.824219 C 15.464844 28.992188 15.996094 30.449219 15.765625 32.199219 Z M 15.765625 32.199219 "/>
<path style=" stroke:none;fill-rule:evenodd;fill:rgb(52.941176%,83.137255%,65.490196%);fill-opacity:1;" d="M 25.042969 27.425781 C 27.691406 27.425781 30.34375 27.425781 32.992188 27.425781 C 29.152344 27.691406 25.265625 27.78125 21.332031 27.691406 C 21.332031 28.753906 21.332031 29.8125 21.332031 30.871094 C 22.570312 30.871094 23.804688 30.871094 25.042969 30.871094 C 25.042969 30.960938 25.042969 31.050781 25.042969 31.136719 C 23.71875 31.136719 22.390625 31.136719 21.066406 31.136719 C 21.066406 29.902344 21.066406 28.664062 21.066406 27.425781 C 22.390625 27.425781 23.71875 27.425781 25.042969 27.425781 Z M 25.042969 27.425781 "/>
<path style=" stroke:none;fill-rule:evenodd;fill:rgb(31.764706%,38.431373%,34.509804%);fill-opacity:1;" d="M 15.765625 32.199219 C 15.589844 32.375 15.414062 32.550781 15.238281 32.726562 C 14.769531 32.125 14.238281 31.550781 13.648438 31.003906 C 12.324219 30.386719 10.996094 29.769531 9.671875 29.148438 C 8.910156 28.664062 8.511719 28 8.480469 27.164062 C 8.867188 27.8125 9.351562 28.386719 9.9375 28.886719 C 11.101562 29.285156 12.25 29.726562 13.382812 30.210938 C 14.238281 30.851562 15.035156 31.511719 15.765625 32.199219 Z M 15.765625 32.199219 "/>
<path style=" stroke:none;fill-rule:evenodd;fill:rgb(67.058824%,84.313725%,74.509804%);fill-opacity:1;" d="M 25.042969 31.136719 C 25.042969 31.050781 25.042969 30.960938 25.042969 30.871094 C 27.78125 30.871094 30.519531 30.871094 33.257812 30.871094 C 33.34375 32.335938 33.253906 33.75 32.992188 35.113281 C 32.992188 33.789062 32.992188 32.460938 32.992188 31.136719 C 30.34375 31.136719 27.691406 31.136719 25.042969 31.136719 Z M 25.042969 31.136719 "/>
<path style=" stroke:none;fill-rule:evenodd;fill:rgb(84.313725%,84.705882%,84.313725%);fill-opacity:1;" d="M 25.042969 31.136719 C 27.691406 31.136719 30.34375 31.136719 32.992188 31.136719 C 32.992188 32.460938 32.992188 33.789062 32.992188 35.113281 C 30.34375 35.113281 27.691406 35.113281 25.042969 35.113281 C 25.042969 33.789062 25.042969 32.460938 25.042969 31.136719 Z M 25.042969 31.136719 "/>
<use xlink:href="#surface32" mask="url(#mask9)"/>
<use xlink:href="#surface35" mask="url(#mask10)"/>
<use xlink:href="#surface38" mask="url(#mask11)"/>
<use xlink:href="#surface41" mask="url(#mask12)"/>
<use xlink:href="#surface44" mask="url(#mask13)"/>
<use xlink:href="#surface47" mask="url(#mask14)"/>
<use xlink:href="#surface50" mask="url(#mask15)"/>
<use xlink:href="#surface53" mask="url(#mask16)"/>
<use xlink:href="#surface56" mask="url(#mask17)"/>
<use xlink:href="#surface59" mask="url(#mask18)"/>
<use xlink:href="#surface62" mask="url(#mask19)"/>
</g>
</svg>
