<?xml version="1.0" encoding="UTF-8"?>
<!DOCTYPE svg PUBLIC "-//W3C//DTD SVG 1.1//EN" "http://www.w3.org/Graphics/SVG/1.1/DTD/svg11.dtd">
<svg xmlns="http://www.w3.org/2000/svg" version="1.1" width="600px" height="200px" style="shape-rendering:geometricPrecision; text-rendering:geometricPrecision; image-rendering:optimizeQuality; fill-rule:evenodd; clip-rule:evenodd" xmlns:xlink="http://www.w3.org/1999/xlink">
<g><path style="opacity:0.978" fill="#424242" d="M 163.5,97.5 C 150.5,85.1667 137.833,72.5 125.5,59.5C 105.167,58.1667 84.8333,58.1667 64.5,59.5C 64.5,83.8333 64.5,108.167 64.5,132.5C 74.6312,143.132 84.9645,153.632 95.5,164C 98.8168,164.498 102.15,164.665 105.5,164.5C 67.3995,168.354 41.2328,152.354 27,116.5C 19.2919,84.6228 28.1253,58.4561 53.5,38C 80.5125,21.3351 107.513,21.3351 134.5,38C 154.464,52.7621 164.131,72.5954 163.5,97.5 Z"/></g>
<g><path style="opacity:0.965" fill="#3abd72" d="M 194.5,58.5 C 206.833,58.5 219.167,58.5 231.5,58.5C 231.5,62.5 231.5,66.5 231.5,70.5C 223.833,70.5 216.167,70.5 208.5,70.5C 208.5,74.1667 208.5,77.8333 208.5,81.5C 215.5,81.5 222.5,81.5 229.5,81.5C 229.5,85.5 229.5,89.5 229.5,93.5C 222.5,93.5 215.5,93.5 208.5,93.5C 208.5,97.5 208.5,101.5 208.5,105.5C 216.167,105.5 223.833,105.5 231.5,105.5C 231.5,109.5 231.5,113.5 231.5,117.5C 219.167,117.5 206.833,117.5 194.5,117.5C 194.5,97.8333 194.5,78.1667 194.5,58.5 Z"/></g>
<g><path style="opacity:0.96" fill="#3abd72" d="M 232.5,58.5 C 248.167,58.5 263.833,58.5 279.5,58.5C 279.5,62.5 279.5,66.5 279.5,70.5C 274.167,70.5 268.833,70.5 263.5,70.5C 263.5,86.1667 263.5,101.833 263.5,117.5C 258.833,117.5 254.167,117.5 249.5,117.5C 249.5,101.833 249.5,86.1667 249.5,70.5C 243.833,70.5 238.167,70.5 232.5,70.5C 232.5,66.5 232.5,62.5 232.5,58.5 Z"/></g>
<g><path style="opacity:0.941" fill="#3abc72" d="M 284.5,58.5 C 289.167,58.5 293.833,58.5 298.5,58.5C 298.5,66.1667 298.5,73.8333 298.5,81.5C 304.5,81.5 310.5,81.5 316.5,81.5C 316.5,73.8333 316.5,66.1667 316.5,58.5C 321.167,58.5 325.833,58.5 330.5,58.5C 330.5,78.1667 330.5,97.8333 330.5,117.5C 325.833,117.5 321.167,117.5 316.5,117.5C 316.5,109.5 316.5,101.5 316.5,93.5C 310.5,93.5 304.5,93.5 298.5,93.5C 298.5,101.5 298.5,109.5 298.5,117.5C 293.833,117.5 289.167,117.5 284.5,117.5C 284.5,97.8333 284.5,78.1667 284.5,58.5 Z"/></g>
<g><path style="opacity:1" fill="#f7fefa" d="M 64.5,59.5 C 74.5,59.5 84.5,59.5 94.5,59.5C 94.5,64.5 94.5,69.5 94.5,74.5C 89.5,74.5 84.5,74.5 79.5,74.5C 79.5,79.1667 79.5,83.8333 79.5,88.5C 84.5,88.5 89.5,88.5 94.5,88.5C 94.5,93.5 94.5,98.5 94.5,103.5C 89.5,103.5 84.5,103.5 79.5,103.5C 79.5,108.167 79.5,112.833 79.5,117.5C 84.5,117.5 89.5,117.5 94.5,117.5C 94.5,122.5 94.5,127.5 94.5,132.5C 84.5,132.5 74.5,132.5 64.5,132.5C 64.5,108.167 64.5,83.8333 64.5,59.5 Z"/></g>
<g><path style="opacity:1" fill="#d3d3d3" d="M 64.5,59.5 C 84.8333,58.1667 105.167,58.1667 125.5,59.5C 124.513,64.3054 124.179,69.3054 124.5,74.5C 114.5,74.5 104.5,74.5 94.5,74.5C 94.5,69.5 94.5,64.5 94.5,59.5C 84.5,59.5 74.5,59.5 64.5,59.5 Z"/></g>
<g><path style="opacity:1" fill="#3cbc73" d="M 125.5,59.5 C 137.833,72.5 150.5,85.1667 163.5,97.5C 161.773,128.812 146.44,150.312 117.5,162C 113.622,163.47 109.622,164.303 105.5,164.5C 102.15,164.665 98.8168,164.498 95.5,164C 84.9645,153.632 74.6312,143.132 64.5,132.5C 74.5,132.5 84.5,132.5 94.5,132.5C 104.5,132.5 114.5,132.5 124.5,132.5C 125.488,127.36 125.821,122.026 125.5,116.5C 115.167,116.5 104.833,116.5 94.5,116.5C 89.8333,116.5 85.1667,116.5 80.5,116.5C 80.5,112.5 80.5,108.5 80.5,104.5C 95.3428,104.829 110.01,104.496 124.5,103.5C 125.488,98.3595 125.821,93.0262 125.5,87.5C 115.167,87.5 104.833,87.5 94.5,87.5C 89.8333,87.5 85.1667,87.5 80.5,87.5C 80.5,83.5 80.5,79.5 80.5,75.5C 95.3428,75.8293 110.01,75.496 124.5,74.5C 124.179,69.3054 124.513,64.3054 125.5,59.5 Z"/></g>
<g><path style="opacity:0.94" fill="#3abd72" d="M 356.5,66.5 C 365.833,66.8333 375.167,67.1667 384.5,67.5C 384.5,70.5 384.5,73.5 384.5,76.5C 382.712,76.2148 381.045,76.5481 379.5,77.5C 383.164,93.7108 376.497,102.544 359.5,104C 365.632,106.27 371.632,108.937 377.5,112C 383.038,116.393 383.871,121.559 380,127.5C 377.228,129.761 374.062,131.261 370.5,132C 360.745,132.951 351.078,132.451 341.5,130.5C 340.833,130.167 340.167,129.833 339.5,129.5C 340.23,126.891 340.73,124.224 341,121.5C 341.674,120.422 342.674,119.755 344,119.5C 352.435,121.196 360.935,121.696 369.5,121C 362.5,118.167 355.5,115.333 348.5,112.5C 348.053,109.112 348.719,105.779 350.5,102.5C 339.31,96.4426 336.143,87.4426 341,75.5C 345.095,70.5553 350.261,67.5553 356.5,66.5 Z M 358.5,76.5 C 368.044,75.2636 371.211,79.2636 368,88.5C 367.535,89.9308 366.701,91.0975 365.5,92C 354,95.1667 349.833,91 353,79.5C 354.719,78.1312 356.552,77.1312 358.5,76.5 Z"/></g>
<g><path style="opacity:0.966" fill="#3abd72" d="M 412.5,66.5 C 415.119,66.2317 417.619,66.565 420,67.5C 420.499,71.4862 420.666,75.4862 420.5,79.5C 415.005,79.0148 409.838,80.0148 405,82.5C 404.5,94.1619 404.333,105.829 404.5,117.5C 399.833,117.5 395.167,117.5 390.5,117.5C 390.5,100.833 390.5,84.1667 390.5,67.5C 393.518,67.3354 396.518,67.502 399.5,68C 400.147,69.6095 400.98,71.1095 402,72.5C 405.351,70.0795 408.851,68.0795 412.5,66.5 Z"/></g>
<g><path style="opacity:0.945" fill="#3abd72" d="M 441.5,66.5 C 449.789,65.4032 457.122,67.4032 463.5,72.5C 467.845,80.2256 469.512,88.559 468.5,97.5C 458.5,97.5 448.5,97.5 438.5,97.5C 438.901,106.715 443.567,109.882 452.5,107C 455.911,106.474 459.245,105.641 462.5,104.5C 463.167,104.833 463.833,105.167 464.5,105.5C 465.5,108.167 466.5,110.833 467.5,113.5C 465.584,115.317 463.251,116.484 460.5,117C 453.239,119.547 445.905,119.88 438.5,118C 430.714,115.212 426.214,109.712 425,101.5C 423.702,92.5316 424.702,83.8649 428,75.5C 431.528,70.8341 436.028,67.8341 441.5,66.5 Z M 445.5,77.5 C 451.756,77.5888 454.756,80.7554 454.5,87C 449.167,87.6667 443.833,87.6667 438.5,87C 438.56,82.0101 440.893,78.8435 445.5,77.5 Z"/></g>
<g><path style="opacity:0.95" fill="#3abd72" d="M 492.5,66.5 C 501.22,65.2169 508.72,67.5502 515,73.5C 518.204,81.1372 519.704,89.1372 519.5,97.5C 509.5,97.5 499.5,97.5 489.5,97.5C 489.735,106.802 494.401,109.969 503.5,107C 507.447,105.846 511.447,105.013 515.5,104.5C 515.998,107.829 516.998,110.995 518.5,114C 507.389,119.784 496.055,120.451 484.5,116C 479.761,112.687 476.928,108.187 476,102.5C 475.144,94.7682 475.477,87.1016 477,79.5C 479.772,72.2115 484.939,67.8782 492.5,66.5 Z M 495.5,77.5 C 502.621,77.0599 505.621,80.3932 504.5,87.5C 499.5,87.5 494.5,87.5 489.5,87.5C 489.524,82.7556 491.524,79.4223 495.5,77.5 Z"/></g>
<g><path style="opacity:0.933" fill="#3abd72" d="M 552.5,66.5 C 563.444,64.8792 569.277,69.5459 570,80.5C 570.5,92.8288 570.667,105.162 570.5,117.5C 565.833,117.5 561.167,117.5 556.5,117.5C 556.667,106.162 556.5,94.8284 556,83.5C 555.773,80.9405 554.44,79.2738 552,78.5C 548.616,78.9762 545.616,80.3095 543,82.5C 542.5,94.1619 542.333,105.829 542.5,117.5C 537.833,117.5 533.167,117.5 528.5,117.5C 528.5,100.833 528.5,84.1667 528.5,67.5C 531.518,67.3354 534.518,67.502 537.5,68C 538.227,69.3988 538.727,70.8988 539,72.5C 543.471,70.1866 547.971,68.1866 552.5,66.5 Z"/></g>
<g><path style="opacity:1" fill="#87d4a7" d="M 94.5,74.5 C 104.5,74.5 114.5,74.5 124.5,74.5C 110.01,75.496 95.3428,75.8293 80.5,75.5C 80.5,79.5 80.5,83.5 80.5,87.5C 85.1667,87.5 89.8333,87.5 94.5,87.5C 94.5,87.8333 94.5,88.1667 94.5,88.5C 89.5,88.5 84.5,88.5 79.5,88.5C 79.5,83.8333 79.5,79.1667 79.5,74.5C 84.5,74.5 89.5,74.5 94.5,74.5 Z"/></g>
<g><path style="opacity:1" fill="#abd7be" d="M 94.5,88.5 C 94.5,88.1667 94.5,87.8333 94.5,87.5C 104.833,87.5 115.167,87.5 125.5,87.5C 125.821,93.0262 125.488,98.3595 124.5,103.5C 124.5,98.5 124.5,93.5 124.5,88.5C 114.5,88.5 104.5,88.5 94.5,88.5 Z"/></g>
<g><path style="opacity:1" fill="#d7d8d7" d="M 94.5,88.5 C 104.5,88.5 114.5,88.5 124.5,88.5C 124.5,93.5 124.5,98.5 124.5,103.5C 114.5,103.5 104.5,103.5 94.5,103.5C 94.5,98.5 94.5,93.5 94.5,88.5 Z"/></g>
<g><path style="opacity:1" fill="#3cb770" d="M 59.5,121.5 C 56.7344,118.917 53.7344,116.417 50.5,114C 46.2299,112.182 41.8966,110.515 37.5,109C 35.2911,107.127 33.4578,104.96 32,102.5C 32.1212,105.664 33.6212,108.164 36.5,110C 41.5,112.333 46.5,114.667 51.5,117C 53.7341,119.063 55.7341,121.229 57.5,123.5C 48.2646,128.499 40.4313,126.499 34,117.5C 29.6406,110.917 28.6406,103.917 31,96.5C 32.214,98.0488 33.714,99.2155 35.5,100C 41.9195,100.396 47.9195,102.063 53.5,105C 58.3596,109.408 60.3596,114.908 59.5,121.5 Z"/></g>
<g><path style="opacity:1" fill="#87d4a7" d="M 94.5,103.5 C 104.5,103.5 114.5,103.5 124.5,103.5C 110.01,104.496 95.3428,104.829 80.5,104.5C 80.5,108.5 80.5,112.5 80.5,116.5C 85.1667,116.5 89.8333,116.5 94.5,116.5C 94.5,116.833 94.5,117.167 94.5,117.5C 89.5,117.5 84.5,117.5 79.5,117.5C 79.5,112.833 79.5,108.167 79.5,103.5C 84.5,103.5 89.5,103.5 94.5,103.5 Z"/></g>
<g><path style="opacity:1" fill="#516258" d="M 59.5,121.5 C 58.8333,122.167 58.1667,122.833 57.5,123.5C 55.7341,121.229 53.7341,119.063 51.5,117C 46.5,114.667 41.5,112.333 36.5,110C 33.6212,108.164 32.1212,105.664 32,102.5C 33.4578,104.96 35.2911,107.127 37.5,109C 41.8966,110.515 46.2299,112.182 50.5,114C 53.7344,116.417 56.7344,118.917 59.5,121.5 Z"/></g>
<g><path style="opacity:1" fill="#abd7be" d="M 94.5,117.5 C 94.5,117.167 94.5,116.833 94.5,116.5C 104.833,116.5 115.167,116.5 125.5,116.5C 125.821,122.026 125.488,127.36 124.5,132.5C 124.5,127.5 124.5,122.5 124.5,117.5C 114.5,117.5 104.5,117.5 94.5,117.5 Z"/></g>
<g><path style="opacity:1" fill="#d7d8d7" d="M 94.5,117.5 C 104.5,117.5 114.5,117.5 124.5,117.5C 124.5,122.5 124.5,127.5 124.5,132.5C 114.5,132.5 104.5,132.5 94.5,132.5C 94.5,127.5 94.5,122.5 94.5,117.5 Z"/></g>
<g><path style="opacity:0.81" fill="#a6a6a6" d="M 201.5,140.5 C 205.167,140.5 208.833,140.5 212.5,140.5C 212.5,141.833 212.5,143.167 212.5,144.5C 210.167,144.5 207.833,144.5 205.5,144.5C 205.5,145.5 205.5,146.5 205.5,147.5C 207.5,147.5 209.5,147.5 211.5,147.5C 211.5,148.5 211.5,149.5 211.5,150.5C 209.5,150.5 207.5,150.5 205.5,150.5C 205.5,152.5 205.5,154.5 205.5,156.5C 204.167,156.5 202.833,156.5 201.5,156.5C 201.5,151.167 201.5,145.833 201.5,140.5 Z"/></g>
<g><path style="opacity:0.772" fill="#a6a6a6" d="M 232.5,140.5 C 241.294,139.721 244.794,143.721 243,152.5C 239.122,158.719 234.789,159.052 230,153.5C 228.842,148.693 229.676,144.36 232.5,140.5 Z M 235.5,143.5 C 240.612,146.608 240.779,149.941 236,153.5C 232.865,150.343 232.698,147.01 235.5,143.5 Z"/></g>
<g><path style="opacity:0.77" fill="#a6a6a6" d="M 260.5,140.5 C 263.85,140.335 267.183,140.502 270.5,141C 274.085,143.946 274.419,147.28 271.5,151C 272.029,152.559 272.696,154.059 273.5,155.5C 272.277,156.614 270.944,156.781 269.5,156C 266.999,149.962 265.665,150.128 265.5,156.5C 263.833,156.5 262.167,156.5 260.5,156.5C 260.5,151.167 260.5,145.833 260.5,140.5 Z M 265.5,144.5 C 270.833,145.5 270.833,146.5 265.5,147.5C 265.5,146.5 265.5,145.5 265.5,144.5 Z"/></g>
<g><path style="opacity:0.796" fill="#a6a6a6" d="M 311.5,140.5 C 316.167,140.5 320.833,140.5 325.5,140.5C 325.5,141.833 325.5,143.167 325.5,144.5C 323.833,144.5 322.167,144.5 320.5,144.5C 320.5,148.5 320.5,152.5 320.5,156.5C 319.167,156.5 317.833,156.5 316.5,156.5C 316.5,152.5 316.5,148.5 316.5,144.5C 313.05,145.244 311.384,143.91 311.5,140.5 Z"/></g>
<g><path style="opacity:0.762" fill="#a5a5a5" d="M 342.5,140.5 C 343.833,140.5 345.167,140.5 346.5,140.5C 346.5,142.5 346.5,144.5 346.5,146.5C 348.5,146.5 350.5,146.5 352.5,146.5C 352.5,144.5 352.5,142.5 352.5,140.5C 353.833,140.5 355.167,140.5 356.5,140.5C 356.5,145.833 356.5,151.167 356.5,156.5C 355.167,156.5 353.833,156.5 352.5,156.5C 352.5,154.5 352.5,152.5 352.5,150.5C 350.5,150.5 348.5,150.5 346.5,150.5C 346.5,152.5 346.5,154.5 346.5,156.5C 345.167,156.5 343.833,156.5 342.5,156.5C 342.5,151.167 342.5,145.833 342.5,140.5 Z"/></g>
<g><path style="opacity:0.788" fill="#a5a5a5" d="M 374.5,140.5 C 378.167,140.5 381.833,140.5 385.5,140.5C 385.5,141.833 385.5,143.167 385.5,144.5C 383.076,144.192 380.743,144.526 378.5,145.5C 380.396,146.466 382.396,146.799 384.5,146.5C 384.5,147.833 384.5,149.167 384.5,150.5C 382.5,150.5 380.5,150.5 378.5,150.5C 378.5,151.5 378.5,152.5 378.5,153.5C 380.833,153.5 383.167,153.5 385.5,153.5C 385.5,154.5 385.5,155.5 385.5,156.5C 381.833,156.5 378.167,156.5 374.5,156.5C 374.5,151.167 374.5,145.833 374.5,140.5 Z"/></g>
<g><path style="opacity:0.777" fill="#a5a5a5" d="M 423.5,140.5 C 425.144,140.286 426.644,140.62 428,141.5C 429.353,149.36 430.519,149.36 431.5,141.5C 432.689,140.571 434.022,140.238 435.5,140.5C 436.506,151.15 437.506,151.15 438.5,140.5C 439.833,140.5 441.167,140.5 442.5,140.5C 442.141,145.627 441.141,150.627 439.5,155.5C 438.277,156.614 436.944,156.781 435.5,156C 433.46,147.258 432.127,147.424 431.5,156.5C 429.833,156.5 428.167,156.5 426.5,156.5C 425.817,151.103 424.817,145.769 423.5,140.5 Z"/></g>
<g><path style="opacity:0.776" fill="#a6a6a6" d="M 463.5,140.5 C 472.827,140.019 475.994,144.352 473,153.5C 469.426,158.221 465.426,158.554 461,154.5C 458.505,149.13 459.338,144.464 463.5,140.5 Z M 466.5,143.5 C 468.876,144.512 469.876,146.345 469.5,149C 469.826,151.271 468.992,152.771 467,153.5C 462.598,150.477 462.431,147.144 466.5,143.5 Z"/></g>
<g><path style="opacity:0.794" fill="#a6a6a6" d="M 491.5,140.5 C 494.85,140.335 498.183,140.502 501.5,141C 505.054,144 505.387,147.333 502.5,151C 503.029,152.559 503.696,154.059 504.5,155.5C 502.833,156.833 501.167,156.833 499.5,155.5C 496.817,149.845 495.484,150.178 495.5,156.5C 494.167,156.5 492.833,156.5 491.5,156.5C 491.5,151.167 491.5,145.833 491.5,140.5 Z M 495.5,144.5 C 496.833,144.5 498.167,144.5 499.5,144.5C 499.5,145.5 499.5,146.5 499.5,147.5C 498.167,147.5 496.833,147.5 495.5,147.5C 495.5,146.5 495.5,145.5 495.5,144.5 Z"/></g>
<g><path style="opacity:0.787" fill="#a6a6a6" d="M 521.5,140.5 C 523.167,140.5 524.833,140.5 526.5,140.5C 526.5,144.833 526.5,149.167 526.5,153.5C 528.5,153.5 530.5,153.5 532.5,153.5C 532.5,154.5 532.5,155.5 532.5,156.5C 528.833,156.5 525.167,156.5 521.5,156.5C 521.5,151.167 521.5,145.833 521.5,140.5 Z"/></g>
<g><path style="opacity:0.778" fill="#a6a6a6" d="M 549.5,140.5 C 559.789,138.367 563.955,142.367 562,152.5C 561.535,153.931 560.701,155.097 559.5,156C 556.183,156.498 552.85,156.665 549.5,156.5C 549.5,151.167 549.5,145.833 549.5,140.5 Z M 554.5,144.5 C 557.488,144.155 558.821,145.488 558.5,148.5C 558.743,150.922 557.743,152.588 555.5,153.5C 554.516,150.572 554.183,147.572 554.5,144.5 Z"/></g>
</svg>
